<svg width="24" height="31" viewBox="0 0 24 31" fill="none" xmlns="http://www.w3.org/2000/svg">
<path fill-rule="evenodd" clip-rule="evenodd" d="M9.47368 1.89754C9.63158 -0.1551 11.6842 0.00280763 11.6842 0.00280763H12.3158C14.5263 0.00280558 14.5263 1.89754 14.5263 1.89754H23.3684C23.5789 1.95018 24 2.15018 24 2.52912V29.687C24 29.8449 23.8737 30.1923 23.3684 30.3186C22.8632 30.4449 8 30.3712 0.631579 30.3186C0.421053 30.3186 0 30.1923 0 29.687V2.52912C0 2.32315 0.157895 1.89754 0.631579 1.89754H9.47368ZM7.57895 5.05543V3.16069H10.7368C10.7368 3.16069 10.8947 1.58174 11.6842 1.58174H12.3158C13.2632 1.58174 13.2632 3.16069 13.2632 3.16069H16.4211V5.05543H7.57895ZM16.1869 14.5185L19.405 11.3712L19.8947 11.8502L16.1869 15.4765L14.2105 13.5436L14.7003 13.0646L16.1869 14.5185ZM18.4214 19.0109L16.4118 21.0206L14.4021 19.0109L13.9555 19.4575L15.9652 21.4672L13.9555 23.4768L14.4021 23.9234L16.4118 21.9138L18.4214 23.9234L18.868 23.4768L16.8584 21.4672L18.868 19.4575L18.4214 19.0109ZM5.36842 12.6344C5.01961 12.6344 4.73684 12.9171 4.73684 13.266C4.73684 13.6148 5.01961 13.8975 5.36842 13.8975H11.0526C11.4014 13.8975 11.6842 13.6148 11.6842 13.266C11.6842 12.9171 11.4014 12.6344 11.0526 12.6344H5.36842ZM5.36843 20.8449C5.01962 20.8449 4.73685 21.1277 4.73685 21.4765C4.73685 21.8253 5.01962 22.1081 5.36843 22.1081H11.0526C11.4015 22.1081 11.6842 21.8253 11.6842 21.4765C11.6842 21.1277 11.4015 20.8449 11.0526 20.8449H5.36843Z" fill="black"/>
</svg>
