<svg width="24" height="26" viewBox="0 0 24 26" fill="none" xmlns="http://www.w3.org/2000/svg">
<path fill-rule="evenodd" clip-rule="evenodd" d="M3.07757 0C1.973 0 1.07757 0.895429 1.07757 2V4.15655H0V5.19569H1.07757V7.27394H0V8.31307H1.07757L2.07757 8.31308H2.44352H2.69402H2.96343C2.96343 8.31308 2.96343 8.70275 2.69402 8.83265H2.07757H1.07757V10.3914H0V11.4305H1.07757L2.07757 11.4305H2.44352H2.69402H2.96343C2.96343 11.4305 2.96343 11.8202 2.69402 11.9501H2.07757H1.07757V13.5087H0V14.5479H1.07757L2.07757 14.5479H2.44352H2.69402H2.96343C2.96343 14.5479 2.96343 14.9376 2.69402 15.0674H2.07757H1.07757V16.6262H0V17.6653H1.07757L2.07757 17.6653H2.44352H2.69402H2.96343C2.96343 17.6653 2.96343 18.055 2.69402 18.1849H2.07757H1.07757V19.8218C1.07757 20.9264 1.97299 21.8218 3.07756 21.8218H11.3746C11.3354 21.5241 11.3152 21.2206 11.3152 20.9126C11.3152 16.9671 14.6322 13.7686 18.724 13.7686C18.951 13.7686 19.1756 13.7784 19.3974 13.7977V2C19.3974 0.895431 18.502 0 17.3974 0H3.07757ZM2.07763 5.71525H1.07763V5.19568H2.07763H2.44359H2.69409H2.9635C2.9635 5.19568 2.9635 5.58535 2.69409 5.71525H2.07763ZM4.77081 11.0408C4.77081 13.7369 7.03744 15.9226 9.83347 15.9226C12.6295 15.9226 14.8961 13.7369 14.8961 11.0408C14.8961 8.3447 12.6295 6.15906 9.83347 6.15906C7.03744 6.15906 4.77081 8.3447 4.77081 11.0408ZM13.9756 11.0408C13.9756 11.8859 13.7035 12.6697 13.239 13.3151C12.7211 12.6554 11.5039 12.3722 9.83347 12.3722C10.8543 12.3722 11.6744 11.6975 11.6744 10.242C11.6744 9.23083 10.9446 8.37804 9.83347 8.37804C8.71927 8.37804 7.9925 9.15724 7.9925 10.1532C7.9925 11.6743 8.80293 12.3722 9.83347 12.3722C8.16307 12.3722 6.94589 12.6554 6.42791 13.3151C5.96347 12.6697 5.69129 11.8859 5.69129 11.0408C5.69129 8.8349 7.54581 7.04665 9.83347 7.04665C12.1211 7.04665 13.9756 8.8349 13.9756 11.0408ZM9.83347 13.2598C11.4763 13.2598 12.444 13.5649 12.5787 14.0319C11.8478 14.6561 10.8865 15.035 9.83347 15.035C8.78041 15.035 7.81913 14.6561 7.08827 14.0319C7.22298 13.5649 8.19069 13.2598 9.83347 13.2598ZM9.83347 11.4846C9.28956 11.4846 8.91299 11.1603 8.91299 10.1532C8.91299 9.6277 9.25068 9.26564 9.83347 9.26564C10.393 9.26564 10.754 9.68743 10.754 10.242C10.754 11.1733 10.3755 11.4846 9.83347 11.4846ZM15.6603 18.3688H17.6688V19.3863H13.9757V15.8251H15.0309V17.4889C15.941 16.4267 17.2445 15.8251 18.724 15.8251C21.6378 15.8251 24 18.1029 24 20.9126H22.9448C22.9448 18.6648 21.0551 16.8426 18.724 16.8426C17.4612 16.8426 16.3781 17.3914 15.6603 18.3688ZM21.7876 23.4563H19.7791V22.4388H23.4723V26H22.4171V24.3362C21.5069 25.3984 20.2034 26 18.7239 26C15.8101 26 13.448 23.7223 13.448 20.9126H14.5032C14.5032 23.1603 16.3929 24.9825 18.7239 24.9825C19.9868 24.9825 21.0699 24.4337 21.7876 23.4563Z" fill="black"/>
</svg>
